<?xml version="1.0" encoding="UTF-8"?>
<svg width="78px" height="66px" viewBox="0 0 78 66" version="1.1" xmlns="http://www.w3.org/2000/svg" xmlns:xlink="http://www.w3.org/1999/xlink">
    <!-- Generator: Sketch 57.1 (83088) - https://sketch.com -->
    <title>014-miscellaneous</title>
    <desc>Created with Sketch.</desc>
    <g id="Page-1" stroke="none" stroke-width="1" fill="none" fill-rule="evenodd">
        <g id="Desktop_Option" transform="translate(-664.000000, -256.000000)">
            <g id="014-miscellaneous" transform="translate(664.000000, 256.000000)">
                <path d="M54,41 L54,20.5 L54,1.36666667 C54,0.612266667 53.3952,0 52.65,0 L1.35,0 C0.6048,0 0,0.612266667 0,1.36666667 L0,39.6333333 C0,40.3877333 0.6048,41 1.35,41 L18.9,41 L24.3,41 L54,41 Z" id="Path" fill="#F08222" fill-rule="nonzero"></path>
                <path d="M24,21.3696081 L24,56.9794187 C24,57.7354423 24.6048,58.3490268 25.35,58.3490268 L42.9,58.3490268 L50.04555,65.5983624 C50.5734,66.1338792 51.42795,66.1338792 51.95445,65.5983624 L59.1,58.3490268 L76.65,58.3490268 C77.3952,58.3490268 78,57.7354423 78,56.9794187 L78,21.3696081 C78,20.6135844 77.3952,20 76.65,20 L25.35,20 C24.6048,20 24,20.6135844 24,21.3696081 Z" id="Path" fill="#EBBA16" fill-rule="nonzero"></path>
                <g id="Group" transform="translate(6.000000, 6.000000)" fill="#FFFFFF" fill-rule="nonzero">
                    <path d="M12.1782029,16.2970822 L1.35313365,16.2970822 C0.606203876,16.2970822 0,15.6886578 0,14.938992 C0,14.1893263 0.606203876,13.5809019 1.35313365,13.5809019 L12.1782029,13.5809019 C12.9251326,13.5809019 13.5313365,14.1893263 13.5313365,14.938992 C13.5313365,15.6886578 12.9251326,16.2970822 12.1782029,16.2970822 Z" id="Path"></path>
                    <path d="M12.1782029,23.0875332 L1.35313365,23.0875332 C0.606203876,23.0875332 0,22.4791088 0,21.729443 C0,20.9797772 0.606203876,20.3713528 1.35313365,20.3713528 L12.1782029,20.3713528 C12.9251326,20.3713528 13.5313365,20.9797772 13.5313365,21.729443 C13.5313365,22.4791088 12.9251326,23.0875332 12.1782029,23.0875332 Z" id="Path"></path>
                    <path d="M12.1782029,29.8779841 L1.35313365,29.8779841 C0.606203876,29.8779841 0,29.2695597 0,28.5198939 C0,27.7702281 0.606203876,27.1618037 1.35313365,27.1618037 L12.1782029,27.1618037 C12.9251326,27.1618037 13.5313365,27.7702281 13.5313365,28.5198939 C13.5313365,29.2695597 12.9251326,29.8779841 12.1782029,29.8779841 Z" id="Path"></path>
                    <polygon id="Path" points="1.35313365 0 41.9471432 0 41.9471432 8.14854111 1.35313365 8.14854111"></polygon>
                </g>
                <text id="i" font-family="ProximaNova-Bold, Proxima Nova" font-size="30" font-weight="bold" fill="#FFFFFF">
                    <tspan x="47.205" y="49">i</tspan>
                </text>
            </g>
        </g>
    </g>
</svg>