<?xml version="1.0" encoding="UTF-8"?>
<svg width="38px" height="38px" viewBox="0 0 38 38" version="1.1" xmlns="http://www.w3.org/2000/svg" xmlns:xlink="http://www.w3.org/1999/xlink">
    <!-- Generator: Sketch 57.1 (83088) - https://sketch.com -->
    <title>instagram</title>
    <desc>Created with Sketch.</desc>
    <g id="Symbols" stroke="none" stroke-width="1" fill="none" fill-rule="evenodd">
        <g id="footer" transform="translate(-168.000000, -37.000000)" fill="#FFFFFF" fill-rule="nonzero">
            <g id="instagram" transform="translate(168.000000, 37.000000)">
                <path d="M24.5965556,10.0826667 L13.3012667,10.0826667 C11.4983778,10.0826667 10.0315778,11.5494667 10.0315778,13.3523556 L10.0315778,24.6476444 C10.0315778,26.4505333 11.4983778,27.9177556 13.3012667,27.9177556 L24.5965556,27.9177556 C26.3994444,27.9177556 27.8666667,26.4509556 27.8666667,24.6476444 L27.8666667,13.3523556 C27.8666667,11.5494667 26.3998667,10.0826667 24.5965556,10.0826667 Z M18.9489111,24.8714222 C15.7117333,24.8714222 13.0779111,22.2376 13.0779111,19 C13.0779111,15.7628222 15.7117333,13.129 18.9489111,13.129 C22.1865111,13.129 24.8203333,15.7628222 24.8203333,19 C24.8203333,22.2371778 22.1860889,24.8714222 18.9489111,24.8714222 Z M25.0090667,14.3428889 C24.2427333,14.3428889 23.6195333,13.7196889 23.6195333,12.9537778 C23.6195333,12.1878667 24.2427333,11.5646667 25.0090667,11.5646667 C25.7749778,11.5646667 26.3981778,12.1878667 26.3981778,12.9537778 C26.3981778,13.7196889 25.7749778,14.3428889 25.0090667,14.3428889 Z" id="Shape"></path>
                <path d="M18.9489111,15.6099778 C17.0801556,15.6099778 15.5584667,17.1308222 15.5584667,18.9995778 C15.5584667,20.8691778 17.0801556,22.3904444 18.9489111,22.3904444 C20.8185111,22.3904444 22.3389333,20.8691778 22.3389333,18.9995778 C22.3389333,17.1312444 20.8180889,15.6099778 18.9489111,15.6099778 Z" id="Path"></path>
                <path d="M18.9489111,0 C8.48413333,0 0,8.48413333 0,18.9489111 C0,29.4136889 8.48413333,37.8978222 18.9489111,37.8978222 C29.4136889,37.8978222 37.8978222,29.4136889 37.8978222,18.9489111 C37.8978222,8.48413333 29.4136889,0 18.9489111,0 Z M30.3472222,24.6476444 C30.3472222,27.8189556 27.7678667,30.3983111 24.5965556,30.3983111 L13.3012667,30.3983111 C10.1303778,30.3983111 7.5506,27.8189556 7.5506,24.6476444 L7.5506,13.3523556 C7.5506,10.1814667 10.1303778,7.60168889 13.3012667,7.60168889 L24.5965556,7.60168889 C27.7678667,7.60168889 30.3472222,10.1814667 30.3472222,13.3523556 L30.3472222,24.6476444 Z" id="Shape"></path>
            </g>
        </g>
    </g>
</svg>